<svg xmlns="http://www.w3.org/2000/svg" viewBox="0 38 67 67">
  <path fill="#F5F7FA" d="M5.1,55.2H13c1,0,1.9,0.3,2.7,0.9c0.8,0.5,1.4,1.3,1.9,2.1c0.3,0.6,0.5,1.3,0.5,2l0,0v7.8l0,0
	c0,1.3,1,2.4,2.3,2.6c0.1,0,0.3,0,0.4,0h7.8c1,0,1.9,0.3,2.7,0.9c0.8,0.6,1.4,1.3,1.9,2.1c0.3,0.6,0.5,1.3,0.5,2v7.8
	c0,1.5,1.2,2.7,2.7,2.7h7.8c1,0,1.9,0.3,2.7,0.9c0.8,0.6,1.4,1.3,1.9,2.1c0.3,0.6,0.5,1.3,0.5,2v7.8c0,1.5,1.2,2.7,2.7,2.7h7.8
	c1.5,0,2.7-1.2,2.7-2.7v-7.8c0-1.5-1.2-2.7-2.7-2.7h-7.8c-1,0-1.9-0.3-2.7-0.9c-0.8-0.6-1.4-1.3-1.9-2.1c-0.3-0.6-0.5-1.3-0.5-2
	c0,0,0,0,0,0v-7.8c0-0.6-0.2-1.2-0.6-1.7c-0.5-0.6-1.2-1-2.1-1h-7.8c0,0,0,0,0,0c-1,0-1.9-0.3-2.7-0.9c-0.8-0.6-1.4-1.3-1.9-2.1
	c-0.3-0.6-0.5-1.3-0.5-2v0l0,0v-7.8l0,0c0-1.3-1-2.4-2.3-2.6c-0.1,0-0.3,0-0.4,0h-7.8c-1,0-1.9-0.3-2.7-0.9
	c-0.8-0.6-1.4-1.3-1.9-2.1c-0.3-0.6-0.5-1.3-0.5-2c0,0,0,0,0,0v-7.8c0-1.5-1.2-2.7-2.7-2.7H5.1c-1.5,0-2.7,1.2-2.7,2.7v7.8
	C2.4,54,3.6,55.2,5.1,55.2z"/>
  <path fill="#a89d43" d="M15.6,67.9L15.6,67.9L15.6,67.9v-7.8l0,0c0-1.3-1-2.4-2.3-2.6c-0.1,0-0.3,0-0.4,0H5.1c-0.1,0-0.3,0-0.4,0
	c-1.3,0.2-2.3,1.3-2.3,2.6l0,0c0,0,0,0,0,0l0,0v7.8l0,0c0,1.3,1,2.4,2.3,2.6c0.1,0,0.3,0,0.4,0H13c1,0,1.9,0.3,2.7,0.9
	c0.8,0.6,1.4,1.3,1.9,2.1c0.3,0.6,0.5,1.3,0.5,2v7.8c0,1.5,1.2,2.7,2.7,2.7h7.8c1,0,1.9,0.3,2.7,0.9c0.8,0.6,1.4,1.3,1.9,2.1
	c0.3,0.6,0.5,1.3,0.5,2v7.8c0,1.5,1.2,2.7,2.7,2.7h7.8c1.5,0,2.7-1.2,2.7-2.7v-7.8c0-1.5-1.2-2.7-2.7-2.7h-7.8c-1,0-1.9-0.3-2.7-0.9
	c-0.8-0.6-1.4-1.3-1.9-2.1c-0.3-0.6-0.5-1.3-0.5-2c0,0,0,0,0,0v-7.8c0-0.6-0.2-1.2-0.6-1.7c-0.5-0.6-1.2-1-2.1-1h-7.8c0,0,0,0,0,0
	c-1,0-1.9-0.3-2.7-0.9c-0.8-0.6-1.4-1.3-1.9-2.1C15.8,69.3,15.6,68.6,15.6,67.9z"/>
  <path fill="#F5F7FA" d="M5.1,101.4H13c1.5,0,2.7-1.2,2.7-2.7v-7.8c0-1.5-1.2-2.7-2.7-2.7H5.1c-1.5,0-2.7,1.2-2.7,2.7v7.8
		C2.4,100.3,3.6,101.4,5.1,101.4z"/>
  <path fill="#F5F7FA" d="M5,72.8c-1.4,0.1-2.5,1.2-2.5,2.7c0,0,0,0,0,0v7.8c0,1.5,1.2,2.7,2.7,2.7H13c1,0,1.9,0.3,2.7,0.9
	c0.8,0.6,1.4,1.3,1.9,2.1c0.3,0.6,0.5,1.3,0.5,2v7.8c0,1.5,1.2,2.7,2.7,2.7h7.8c1.5,0,2.7-1.2,2.7-2.7v-7.8c0-1.5-1.2-2.7-2.7-2.7
	h-7.8c-1,0-1.9-0.3-2.7-0.9c-0.8-0.6-1.4-1.3-1.9-2.1c-0.3-0.6-0.5-1.3-0.5-2c0,0,0,0,0,0v-7.8c0-0.6-0.2-1.2-0.6-1.7
	c-0.5-0.6-1.2-1-2.1-1H5.1c0,0,0,0,0,0C5.1,72.8,5,72.8,5,72.8z"/>
  <path fill="#F5F7FA" d="M17.9,53.5c0.3,0.6,0.8,1.1,1.3,1.5c0.5,0.3,1,0.5,1.5,0.5h7.8c0.2,0,0.5,0,0.7,0.1c2.3,0.3,3.9,2.3,3.9,4.6
	v7.8c0,0.3,0.1,0.7,0.3,1c0.3,0.6,0.8,1.1,1.3,1.5c0.4,0.3,1,0.5,1.5,0.5h7.9c1.4,0,2.7,0.6,3.6,1.7c0.7,0.8,1.1,1.9,1.1,2.9v7.8
	c0,0.3,0.1,0.7,0.3,1c0.3,0.6,0.8,1.1,1.3,1.5c0.5,0.3,1,0.5,1.5,0.5h7.8c0.7,0,1.4-0.3,1.9-0.8c0.5-0.5,0.8-1.2,0.8-1.9V45.1
	c0-1.7-1.4-3.1-3.1-3.1h-39c-1.5,0-2.7,1.2-2.7,2.7c0,0,0,0,0,0v7.8C17.6,52.8,17.7,53.2,17.9,53.5z"/>
</svg>
