<svg version="1.1" id="Layer_1" xmlns="http://www.w3.org/2000/svg" xmlns:xlink="http://www.w3.org/1999/xlink" x="0px" y="0px" viewBox="0 0 640 144" style="enable-background:new 0 0 640 144;" xml:space="preserve">
<style type="text/css">
	.st0{fill:#6B2956;}
	.st1{fill:#AA9C2E;}
</style>
<path class="st0" d="M5.1,55.2H13c1,0,1.9,0.3,2.7,0.9c0.8,0.5,1.4,1.3,1.9,2.1c0.3,0.6,0.5,1.3,0.5,2l0,0v7.8l0,0
	c0,1.3,1,2.4,2.3,2.6c0.1,0,0.3,0,0.4,0h7.8c1,0,1.9,0.3,2.7,0.9c0.8,0.6,1.4,1.3,1.9,2.1c0.3,0.6,0.5,1.3,0.5,2v7.8
	c0,1.5,1.2,2.7,2.7,2.7h7.8c1,0,1.9,0.3,2.7,0.9c0.8,0.6,1.4,1.3,1.9,2.1c0.3,0.6,0.5,1.3,0.5,2v7.8c0,1.5,1.2,2.7,2.7,2.7h7.8
	c1.5,0,2.7-1.2,2.7-2.7v-7.8c0-1.5-1.2-2.7-2.7-2.7h-7.8c-1,0-1.9-0.3-2.7-0.9c-0.8-0.6-1.4-1.3-1.9-2.1c-0.3-0.6-0.5-1.3-0.5-2
	c0,0,0,0,0,0v-7.8c0-0.6-0.2-1.2-0.6-1.7c-0.5-0.6-1.2-1-2.1-1h-7.8c0,0,0,0,0,0c-1,0-1.9-0.3-2.7-0.9c-0.8-0.6-1.4-1.3-1.9-2.1
	c-0.3-0.6-0.5-1.3-0.5-2v0l0,0v-7.8l0,0c0-1.3-1-2.4-2.3-2.6c-0.1,0-0.3,0-0.4,0h-7.8c-1,0-1.9-0.3-2.7-0.9
	c-0.8-0.6-1.4-1.3-1.9-2.1c-0.3-0.6-0.5-1.3-0.5-2c0,0,0,0,0,0v-7.8c0-1.5-1.2-2.7-2.7-2.7H5.1c-1.5,0-2.7,1.2-2.7,2.7v7.8
	C2.4,54,3.6,55.2,5.1,55.2z"></path>
<path class="st1" d="M15.6,67.9L15.6,67.9L15.6,67.9v-7.8l0,0c0-1.3-1-2.4-2.3-2.6c-0.1,0-0.3,0-0.4,0H5.1c-0.1,0-0.3,0-0.4,0
	c-1.3,0.2-2.3,1.3-2.3,2.6l0,0c0,0,0,0,0,0l0,0v7.8l0,0c0,1.3,1,2.4,2.3,2.6c0.1,0,0.3,0,0.4,0H13c1,0,1.9,0.3,2.7,0.9
	c0.8,0.6,1.4,1.3,1.9,2.1c0.3,0.6,0.5,1.3,0.5,2v7.8c0,1.5,1.2,2.7,2.7,2.7h7.8c1,0,1.9,0.3,2.7,0.9c0.8,0.6,1.4,1.3,1.9,2.1
	c0.3,0.6,0.5,1.3,0.5,2v7.8c0,1.5,1.2,2.7,2.7,2.7h7.8c1.5,0,2.7-1.2,2.7-2.7v-7.8c0-1.5-1.2-2.7-2.7-2.7h-7.8c-1,0-1.9-0.3-2.7-0.9
	c-0.8-0.6-1.4-1.3-1.9-2.1c-0.3-0.6-0.5-1.3-0.5-2c0,0,0,0,0,0v-7.8c0-0.6-0.2-1.2-0.6-1.7c-0.5-0.6-1.2-1-2.1-1h-7.8c0,0,0,0,0,0
	c-1,0-1.9-0.3-2.7-0.9c-0.8-0.6-1.4-1.3-1.9-2.1C15.8,69.3,15.6,68.6,15.6,67.9z"></path>
<g>
	<path class="st0" d="M5.1,101.4H13c1.5,0,2.7-1.2,2.7-2.7v-7.8c0-1.5-1.2-2.7-2.7-2.7H5.1c-1.5,0-2.7,1.2-2.7,2.7v7.8
		C2.4,100.3,3.6,101.4,5.1,101.4z"></path>
</g>
<path class="st0" d="M5,72.8c-1.4,0.1-2.5,1.2-2.5,2.7c0,0,0,0,0,0v7.8c0,1.5,1.2,2.7,2.7,2.7H13c1,0,1.9,0.3,2.7,0.9
	c0.8,0.6,1.4,1.3,1.9,2.1c0.3,0.6,0.5,1.3,0.5,2v7.8c0,1.5,1.2,2.7,2.7,2.7h7.8c1.5,0,2.7-1.2,2.7-2.7v-7.8c0-1.5-1.2-2.7-2.7-2.7
	h-7.8c-1,0-1.9-0.3-2.7-0.9c-0.8-0.6-1.4-1.3-1.9-2.1c-0.3-0.6-0.5-1.3-0.5-2c0,0,0,0,0,0v-7.8c0-0.6-0.2-1.2-0.6-1.7
	c-0.5-0.6-1.2-1-2.1-1H5.1c0,0,0,0,0,0C5.1,72.8,5,72.8,5,72.8z"></path>
<path class="st0" d="M17.9,53.5c0.3,0.6,0.8,1.1,1.3,1.5c0.5,0.3,1,0.5,1.5,0.5h7.8c0.2,0,0.5,0,0.7,0.1c2.3,0.3,3.9,2.3,3.9,4.6
	v7.8c0,0.3,0.1,0.7,0.3,1c0.3,0.6,0.8,1.1,1.3,1.5c0.4,0.3,1,0.5,1.5,0.5h7.9c1.4,0,2.7,0.6,3.6,1.7c0.7,0.8,1.1,1.9,1.1,2.9v7.8
	c0,0.3,0.1,0.7,0.3,1c0.3,0.6,0.8,1.1,1.3,1.5c0.5,0.3,1,0.5,1.5,0.5h7.8c0.7,0,1.4-0.3,1.9-0.8c0.5-0.5,0.8-1.2,0.8-1.9V45.1
	c0-1.7-1.4-3.1-3.1-3.1h-39c-1.5,0-2.7,1.2-2.7,2.7c0,0,0,0,0,0v7.8C17.6,52.8,17.7,53.2,17.9,53.5z"></path>
<g>
	<g>
		<path class="st0" d="M67.4,100.4V45.4h10.7v26.8l23.8-26.9H113L91.9,69.8l22.4,30.6H103L85.5,75.8l-7.4,8v16.6H67.4z"></path>
		<path class="st0" d="M113,72.9c0-14.6,11.2-27.9,26.3-27.9c15.6,0,26,14.2,26,28c0,14.6-11,27.7-26.2,27.7
			C123.5,100.7,113,87,113,72.9z M139.2,91.3c9.8,0,15.3-9.4,15.3-18.4c0-9.5-5.9-18.4-15.3-18.4c-9.8,0-15.3,9.3-15.3,18.4
			C123.8,82.4,129.5,91.3,139.2,91.3z"></path>
		<path class="st0" d="M173.5,100.4v-55h24.3c10.1,0,17.5,9.3,17.5,18.3c0,7-3.9,13.5-9.9,16l12.9,20.7h-12.1l-11.5-18.4h-10.5v18.4
			H173.5z M184.2,72.5h13.4c4,0,7-4,7-8.9c0-5.1-3.6-8.9-7.4-8.9h-12.9V72.5z"></path>
		<path class="st0" d="M252.3,100.4h-26.6v-55h29.4c7.7,0,12.6,7.1,12.6,14c0,5.3-2.8,10.5-7.9,12.8c6.3,1.9,10.2,6.8,10.2,14
			C270,95.4,262,100.4,252.3,100.4z M236.4,54.5v13.9h14.3c3.6,0,6.5-2.6,6.5-7c0-4.2-2.6-6.9-6-6.9H236.4z M252.8,76.8h-16.4v14.5
			h15.9c3.9,0,7-3.2,7-7.1C259.3,80.1,256.5,76.8,252.8,76.8z"></path>
		<path class="st0" d="M316.6,91v9.4h-38.2v-55h37.5v9.4h-26.8V68h23.2v8.7h-23.2V91H316.6z"></path>
		<path class="st0" d="M330.8,45.4l13.6,26.5l13.8-26.5h11.5l-20,35.8v19.2H339V81l-19.9-35.6H330.8z"></path>
	</g>
	<g>
		<path class="st1" d="M388.8,100.4v-55h10.7V91h28v9.4H388.8z"></path>
		<path class="st1" d="M432,100.4l21.7-55h8.7l21.6,55h-11.3l-5-13.7h-19.3l-5,13.7H432z M458,56.9l-7.9,22.2h15.6L458,56.9z"></path>
		<path class="st1" d="M523.2,94.2c-4.3,4.5-9.1,6.6-14.6,6.6c-14.1,0-25.4-13.5-25.4-28.2c0-15,11.2-27.6,26.1-27.6
			c10,0,17.4,4.7,20.9,12l-8,5.9c-2.6-5.4-7.7-8.4-13.3-8.4c-9,0-15,8.5-15,18.4c0,10.4,6.6,18.4,15.6,18.4c5,0,9.6-2.5,13.7-7.5
			v-3.9h-11.1v-7.8h19.9v28.3h-8.8V94.2z"></path>
		<path class="st1" d="M578.3,73.4v-28h10.6v28c0,15-7,27.3-24,27.3c-17.6,0-24.1-13.1-24.1-27.3v-28h10.7v28
			c0,9.2,3.3,17.9,13.3,17.9C575,91.3,578.3,82.4,578.3,73.4z"></path>
		<path class="st1" d="M637.8,91v9.4h-38.2v-55h37.5v9.4h-26.8V68h23.2v8.7h-23.2V91H637.8z"></path>
	</g>
</g>
</svg>